<?xml version="1.0" encoding="UTF-8"?>
<svg xmlns="http://www.w3.org/2000/svg" width="1600" height="900" viewBox="0 0 1600 900">
  <defs>
    <linearGradient id="steel" x1="0" x2="0" y1="0" y2="1">
      <stop offset="0%" stop-color="#d9dee5"/>
      <stop offset="100%" stop-color="#b7c0cd"/>
    </linearGradient>
    <linearGradient id="girder" x1="0" x2="1" y1="0" y2="0">
      <stop offset="0%" stop-color="#8aa0b3"/>
      <stop offset="100%" stop-color="#6d8294"/>
    </linearGradient>
    <pattern id="hatch" width="8" height="8" patternUnits="userSpaceOnUse" patternTransform="rotate(45)">
      <rect width="8" height="8" fill="none"/>
      <path d="M0 0 L0 8" stroke="#ffffff" stroke-opacity="0.07" stroke-width="2"/>
    </pattern>
    <filter id="softBlur" x="-10%" y="-10%" width="120%" height="120%">
      <feGaussianBlur stdDeviation="0.7"/>
    </filter>
  </defs>

  <rect x="0" y="0" width="1600" height="900" fill="#eef2f7"/>

  <!-- Curved beams (arcs) -->
  <g stroke="#9aa9ba" stroke-width="18" fill="none" opacity="0.25">
    <path d="M-200,200 A500,500 0 0,1 600,100" />
    <path d="M100,850 A700,700 0 0,1 1400,450" />
    <path d="M-100,700 A600,600 0 0,1 900,200" />
  </g>

  <!-- I-beams silhouettes -->
  <g fill="url(#steel)" stroke="#7f8fa3" stroke-opacity="0.35" opacity="0.25">
    <g transform="translate(120,120) scale(1.1)">
      <rect x="0" y="0" width="280" height="26" rx="3"/>
      <rect x="0" y="110" width="280" height="26" rx="3"/>
      <rect x="120" y="20" width="40" height="100"/>
    </g>
    <g transform="translate(1050,180) scale(0.9)">
      <rect x="0" y="0" width="320" height="28" rx="3"/>
      <rect x="0" y="120" width="320" height="28" rx="3"/>
      <rect x="140" y="22" width="40" height="100"/>
    </g>
    <g transform="translate(700,600) scale(1.0)">
      <rect x="0" y="0" width="280" height="24" rx="3"/>
      <rect x="0" y="100" width="280" height="24" rx="3"/>
      <rect x="120" y="18" width="40" height="84"/>
    </g>
  </g>

  <!-- Straight girders -->
  <g>
    <rect x="-50" y="420" width="800" height="14" fill="url(#girder)" opacity="0.22" />
    <rect x="900" y="720" width="850" height="14" fill="url(#girder)" opacity="0.18" />
  </g>

  <!-- Light hatching overlay -->
  <rect x="0" y="0" width="1600" height="900" fill="url(#hatch)"/>

  <!-- Soft vignette -->
  <rect x="0" y="0" width="1600" height="900" fill="#000" opacity="0.04" filter="url(#softBlur)"/>
</svg>
